<svg xmlns="http://www.w3.org/2000/svg" viewBox="0 0 48 48"><circle cx="24" cy="24" r="21" fill="#47caf0"/><path fill="#20aee1" d="M28,40c-11.046,0-20-8.954-20-20,0-5.818,2.5-11.04,6.465-14.694C7.665,8.781,3,15.839,3,24c0,11.598,9.402,21,21,21,8.161,0,15.219-4.665,18.694-11.466-3.655,3.966-8.876,6.466-14.694,6.466Z"/><rect width="6" height="14" x="21" y="22" fill="#eff3f9" rx="2" ry="2"/><path fill="#cfe0f3" d="M23,32v-10c-1.105,0-2,.895-2,2v10c0,1.105,.895,2,2,2h2c1.105,0,2-.895,2-2h-2c-1.105,0-2-.895-2-2Z"/><circle cx="24" cy="15" r="3" fill="#eff3f9"/><path fill="#cfe0f3" d="M25,16c-1.105,0-2-.895-2-2,0-.949,.663-1.74,1.549-1.945-.179-.033-.361-.055-.549-.055-1.657,0-3,1.343-3,3s1.343,3,3,3,3-1.343,3-3c0-.188-.022-.371-.055-.549-.205,.887-.996,1.549-1.945,1.549Z"/><path fill="#08105e" d="M25 37h-2c-1.654 0-3-1.346-3-3v-10c0-1.654 1.346-3 3-3h2c1.654 0 3 1.346 3 3v10c0 1.654-1.346 3-3 3zm-2-14c-.552 0-1 .449-1 1v10c0 .552.448 1 1 1h2c.552 0 1-.448 1-1v-10c0-.551-.448-1-1-1h-2zM24 19c-2.206 0-4-1.794-4-4s1.794-4 4-4 4 1.794 4 4-1.794 4-4 4zm0-6c-1.103 0-2 .897-2 2s.897 2 2 2 2-.897 2-2-.897-2-2-2z"/><path fill="#08105e" d="M24,46c-12.131,0-22-9.869-22-22S11.869,2,24,2s22,9.869,22,22-9.869,22-22,22Zm0-42C12.972,4,4,12.972,4,24s8.972,20,20,20,20-8.972,20-20S35.028,4,24,4Z"/></svg>