<svg xmlns="http://www.w3.org/2000/svg" viewBox="0 0 32 32"><path fill="#69f0ae" d="M21 9a5 5 0 0 1-2.5 4.33A4.92 4.92 0 0 1 16 14a5 5 0 0 1 0-10 4.92 4.92 0 0 1 2.5.67A5 5 0 0 1 21 9Z"/><ellipse cx="18.5" cy="9" fill="#45ce86" rx="2.5" ry="4.33"/><path fill="#dfdfdf" d="M17 13.9a4.62 4.62 0 0 1-1 .1 5 5 0 0 1 0-10 4.62 4.62 0 0 1 1 .1 5 5 0 0 0 0 9.8Z"/><path fill="#0e3a7a" d="M16 15a6 6 0 1 1 6-6 6 6 0 0 1-6 6Zm0-10a4 4 0 1 0 4 4 4 4 0 0 0-4-4Z"/><path fill="#fff" d="M10.4 25.49A12.22 12.22 0 0 0 16.91 28a12.09 12.09 0 0 1-8.33-2.51C7.09 24.35 6 23 6 21.62 6 17.39 10.46 14 16 14h.91c-5.11.35-9.11 3.62-9.11 7.63 0 1.37 1.11 2.72 2.6 3.86Z"/><path fill="#9ccc65" d="M26.09 22.57c0 1.41-1.12 1.78-2.62 2.91a12.16 12.16 0 0 1-14.94 0C7 24.35 5.91 24 5.91 22.57 5.91 18.34 10.43 14 16 14s10.09 4.34 10.09 8.57Z"/><path fill="#69f0ae" d="M26.09 22.57c0 1.41-1.12 1.78-2.62 2.92a12.78 12.78 0 0 1-4 2 12.18 12.18 0 0 1-11-2C7 24.35 5.91 24 5.91 22.57 5.91 18.34 10.43 14 16 14a10.62 10.62 0 0 1 3.5.59c3.85 1.3 6.59 4.69 6.59 7.98Z"/><path fill="#45ce86" d="M26.09 22.57c0 1.41-1.12 1.78-2.62 2.92a12.78 12.78 0 0 1-4 2 12.78 12.78 0 0 1-4-2C14 24.35 12.91 24 12.91 22.57c0-3.29 2.74-6.68 6.59-8 3.85 1.32 6.59 4.71 6.59 8Z"/><path fill="#fff" d="M17 28a12.31 12.31 0 0 1-8.45-2.51C7 24.35 5.91 24 5.91 22.57 5.91 18.34 10.43 14 16 14h1c-5.09.49-9.06 4.6-9.06 8.56 0 1.41 1.12 1.78 2.62 2.92A12.51 12.51 0 0 0 17 28Z"/><path fill="#0e3a7a" d="M16 29a13.37 13.37 0 0 1-8.08-2.75c-.32-.24-.61-.44-.89-.63-1-.71-2.12-1.45-2.12-3.08 0-5 5.29-9.54 11.09-9.54s11.09 4.58 11.09 9.61c0 1.63-1.08 2.37-2.12 3.08-.28.19-.57.39-.89.63A13.37 13.37 0 0 1 16 29Zm0-14c-5.12 0-9.09 4.09-9.09 7.61 0 .52.22.72 1.25 1.43.3.2.63.42 1 .69a11.27 11.27 0 0 0 13.74 0c.34-.27.67-.49 1-.69 1-.71 1.25-.91 1.25-1.43C25.09 19.05 21.12 15 16 15Z"/></svg>