<svg xmlns="http://www.w3.org/2000/svg" enable-background="new 0 0 512 512" viewBox="0 0 512 512"><g opacity=".74"><polygon fill="#FAED23" points="454.13 296.3 454.13 326.02 383.81 326.02 372.81 296.3"/><path d="M446.63,296.3c0,9.907,0,19.813,0,29.72c2.5-2.5,5-5,7.5-7.5c-23.44,0-46.88,0-70.32,0
				c2.411,1.835,4.821,3.671,7.232,5.506c-3.667-9.907-7.333-19.813-11-29.72c-2.411,3.165-4.821,6.329-7.232,9.494
				c27.107,0,54.213,0,81.32,0c9.673,0,9.673-15,0-15c-27.107,0-54.213,0-81.32,0c-4.558,0-8.951,4.851-7.232,9.494
				c3.667,9.907,7.333,19.813,11,29.72c1.173,3.17,3.677,5.506,7.232,5.506c23.44,0,46.88,0,70.32,0c4.088,0,7.5-3.412,7.5-7.5
				c0-9.907,0-19.813,0-29.72C461.63,286.627,446.63,286.627,446.63,296.3z"/><polygon fill="#FAED23" points="304.91 326.02 207.92 326.02 219.01 296.3 293.97 296.3"/><path d="M304.91,318.52c-32.33,0-64.66,0-96.99,0c2.411,3.165,4.821,6.329,7.232,9.494c3.697-9.907,7.393-19.813,11.09-29.72
				c-2.411,1.835-4.821,3.671-7.232,5.506c24.987,0,49.973,0,74.96,0c-2.411-1.835-4.821-3.671-7.232-5.506
				c3.647,9.907,7.293,19.813,10.94,29.72c3.312,8.998,17.813,5.11,14.464-3.988c-3.647-9.907-7.293-19.813-10.94-29.72
				c-1.167-3.171-3.681-5.506-7.232-5.506c-24.987,0-49.973,0-74.96,0c-3.562,0-6.05,2.338-7.232,5.506
				c-3.697,9.907-7.393,19.813-11.09,29.72c-1.732,4.641,2.684,9.494,7.232,9.494c32.33,0,64.66,0,96.99,0
				C314.583,333.52,314.583,318.52,304.91,318.52z"/><polygon fill="#FAED23" points="139.19 296.3 128.19 326.02 57.87 326.02 57.87 296.3"/><path d="M131.958,294.306c-3.667,9.907-7.333,19.813-11,29.72c2.411-1.835,4.821-3.671,7.232-5.506c-23.44,0-46.88,0-70.32,0
				c2.5,2.5,5,5,7.5,7.5c0-9.907,0-19.813,0-29.72c-2.5,2.5-5,5-7.5,7.5c27.107,0,54.213,0,81.32,0c9.673,0,9.673-15,0-15
				c-27.107,0-54.213,0-81.32,0c-4.088,0-7.5,3.412-7.5,7.5c0,9.907,0,19.813,0,29.72c0,4.088,3.412,7.5,7.5,7.5
				c23.44,0,46.88,0,70.32,0c3.556,0,6.059-2.336,7.232-5.506c3.667-9.907,7.333-19.813,11-29.72
				C149.787,289.203,135.285,285.316,131.958,294.306z"/><path fill="#EC2127" d="M221.85,200.54l-75.33,204.18c-21.62-15.11-31.32-43.57-21.77-69.39l3.44-9.31l11-29.72l60.49-163.49
			c-2.02,5.99-3.12,12.4-3.12,19.07C196.56,172,206.55,189.78,221.85,200.54z"/><path d="M214.618,198.546c-16.689,45.236-33.379,90.472-50.068,135.708c-8.421,22.824-16.841,45.648-25.262,68.472
				c3.673-1.494,7.345-2.988,11.017-4.482c-19.195-13.775-26.402-39.057-18.279-61.039c4.221-11.424,8.45-22.846,12.677-34.268
				c5.871-15.861,11.738-31.724,17.607-47.586c14.867-40.183,29.734-80.365,44.602-120.548c-4.821-1.329-9.643-2.658-14.464-3.988
				c-9.176,28.573,1.525,58.807,25.617,76.2c3.322,2.398,8.345,0.581,10.261-2.691c2.217-3.784,0.617-7.874-2.691-10.261
				c-18.755-13.54-25.711-37.503-18.723-59.26c2.994-9.324-11.161-12.915-14.464-3.988c-17.31,46.786-34.621,93.571-51.931,140.357
				c-5.359,14.483-10.718,28.966-16.078,43.449c-4.62,12.481-9.92,24.678-10.784,38.136c-1.486,23.141,10.581,45.162,29.08,58.437
				c4.238,3.041,9.487-0.333,11.017-4.482c16.689-45.236,33.379-90.472,50.068-135.708c8.421-22.824,16.841-45.648,25.262-68.472
				C232.438,193.439,217.936,189.552,214.618,198.546z"/><path d="M150.375 398.294c-.023-.017-.047-.033-.07-.05-1.566-1.119-3.989-1.249-5.779-.756-1.875.516-3.5 1.77-4.482 3.447-1.015 1.732-1.289 3.843-.756 5.779.252.597.504 1.194.756 1.792.667 1.127 1.564 2.024 2.691 2.691.023.017.047.033.07.05 1.566 1.119 3.989 1.249 5.779.756 1.875-.516 3.5-1.77 4.482-3.447 1.015-1.732 1.289-3.843.756-5.779-.252-.597-.504-1.194-.756-1.792C152.399 399.858 151.502 398.961 150.375 398.294L150.375 398.294zM242.85 207.63c0-.003 0-.007 0-.01 0-4.088-3.412-7.5-7.5-7.5-4.088 0-7.5 3.412-7.5 7.5 0 .003 0 .007 0 .01 0 4.088 3.412 7.5 7.5 7.5C239.438 215.13 242.85 211.718 242.85 207.63L242.85 207.63zM284.15 207.63c0-.003 0-.007 0-.01 0-4.088-3.412-7.5-7.5-7.5s-7.5 3.412-7.5 7.5c0 .003 0 .007 0 .01 0 4.088 3.412 7.5 7.5 7.5S284.15 211.718 284.15 207.63L284.15 207.63z"/><path fill="#EC2127" d="M365.48,404.72l-75.33-204.18c15.3-10.76,25.29-28.54,25.29-48.66c0-6.67-1.1-13.08-3.12-19.07
			l60.49,163.49l11,29.72l3.44,9.31C396.8,361.15,387.1,389.61,365.48,404.72z"/><path d="M372.712,402.726c-16.689-45.236-33.379-90.472-50.068-135.708c-8.421-22.824-16.841-45.648-25.262-68.472
				c-1.149,2.823-2.298,5.646-3.447,8.47c24.092-17.392,34.793-47.627,25.617-76.2c-4.821,1.329-9.643,2.658-14.464,3.988
				c17.31,46.786,34.621,93.571,51.931,140.357c4.8,12.974,9.601,25.948,14.403,38.921c3.697,9.987,8.23,20.122,10.76,30.469
				c4.875,19.939-3.979,41.847-20.487,53.693c-7.783,5.585-0.306,18.604,7.571,12.952c20.671-14.833,31.973-39.407,28.422-64.804
				c-1.862-13.311-8.177-26.505-12.831-39.079c-5.903-15.949-11.804-31.9-17.706-47.85c-15.866-42.882-31.732-85.765-47.598-128.647
				c-3.303-8.927-17.459-5.336-14.464,3.988c6.987,21.757,0.032,45.721-18.723,59.26c-2.577,1.86-4.678,5.132-3.447,8.47
				c16.689,45.236,33.379,90.472,50.068,135.708c8.421,22.824,16.841,45.648,25.262,68.472
				C361.566,415.708,376.068,411.821,372.712,402.726z"/><path d="M361.695,398.244c-0.023,0.017-0.047,0.033-0.07,0.05c-0.506,0.391-1.012,0.782-1.518,1.173
				c-0.93,0.936-1.573,2.039-1.929,3.31c-0.533,1.936-0.259,4.047,0.756,5.779c0.982,1.677,2.608,2.931,4.482,3.447
				c1.791,0.492,4.213,0.363,5.779-0.756c0.023-0.017,0.047-0.033,0.07-0.05c0.506-0.391,1.012-0.782,1.518-1.173
				c0.93-0.936,1.573-2.039,1.929-3.309c0.533-1.936,0.259-4.047-0.756-5.779c-0.982-1.677-2.608-2.931-4.482-3.447
				C365.683,396.995,363.261,397.125,361.695,398.244L361.695,398.244z"/><g><path fill="#544741" d="M394.56,483.54l-27.88,10.31l-61.77-167.83l-10.94-29.72l-31.28-84.98l1.4-0.55
			c4.36-0.59,8.56-1.65,12.56-3.14c4.82-1.78,9.34-4.17,13.47-7.08c0.01,0,0.02-0.01,0.03-0.01l75.33,204.18L394.56,483.54z"/><path d="M392.566,476.308c-9.293,3.437-18.587,6.873-27.88,10.31c3.075,1.746,6.151,3.492,9.226,5.238
				c-17.221-46.789-34.442-93.578-51.662-140.368c-13.925-37.835-27.852-75.669-41.779-113.503
				c-3.516-9.553-7.033-19.106-10.549-28.659c-1.746,3.075-3.492,6.151-5.238,9.226c4.415-1.735,9.416-2.079,13.96-3.69
				c2.745-0.973,5.42-2.203,8.033-3.483c1.006-0.511,1.997-1.051,2.972-1.62c-0.32,0.18,4.019-2.495,2.495-1.987
				c-3.075-1.746-6.151-3.492-9.226-5.238c16.689,45.236,33.379,90.472,50.068,135.708c14.347,38.887,28.694,77.773,43.04,116.66
				c3.767,10.211,7.534,20.421,11.301,30.632c3.318,8.994,17.82,5.107,14.464-3.988c-12.889-34.935-25.778-69.869-38.667-104.804
				c-20.086-54.444-40.173-108.887-60.259-163.331c-1.828-4.955-3.656-9.91-5.484-14.865c-1.354-3.669-5.105-6.612-9.226-5.238
				c-4.71,1.57-8.769,5.264-13.5,7.09c-4.531,1.749-9.519,1.945-13.96,3.69c-3.543,1.392-6.758,5.096-5.238,9.226
				c14.283,38.804,28.568,77.607,42.85,116.411c18.297,49.714,36.594,99.428,54.892,149.142c2.083,5.659,4.166,11.319,6.249,16.978
				c1.315,3.572,5.157,6.743,9.226,5.238c9.293-3.437,18.587-6.873,27.88-10.31C405.545,487.447,401.659,472.945,392.566,476.308z"/></g><g><path fill="#544741" d="M250.67,211.43l-31.66,84.87l-11.09,29.72l-62.6,167.83l-27.88-10.31l29.08-78.82l75.33-204.18
			c0,0,0.01,0.01,0.02,0.01c4.13,2.91,8.66,5.3,13.48,7.08c4.45,1.66,9.16,2.79,14.05,3.32L250.67,211.43z"/><path d="M243.438,209.436c-14.462,38.767-28.928,77.533-43.388,116.301c-18.543,49.714-37.086,99.428-55.629,149.142
				c-2.111,5.659-4.222,11.319-6.333,16.978c3.075-1.746,6.151-3.492,9.226-5.238c-9.293-3.437-18.587-6.873-27.88-10.31
				c1.746,3.075,3.492,6.151,5.238,9.226c12.889-34.935,25.778-69.869,38.666-104.804c20.086-54.444,40.173-108.887,60.259-163.331
				c1.828-4.955,3.656-9.91,5.484-14.865c-3.673,1.494-7.345,2.988-11.018,4.482c5.191,2.595,9.792,5.724,15.292,7.846
				c4.966,1.916,10.458,1.962,15.32,3.8c9.065,3.426,12.946-11.078,3.988-14.464c-4.28-1.618-9.208-1.78-13.639-3.202
				c-4.975-1.597-8.818-4.646-13.389-6.932c-4.586-2.293-9.275-0.241-11.018,4.482c-16.689,45.236-33.379,90.472-50.068,135.708
				c-14.347,38.887-28.694,77.773-43.04,116.66c-3.767,10.211-7.534,20.421-11.301,30.632c-1.503,4.074,1.667,7.905,5.238,9.226
				c9.293,3.437,18.587,6.873,27.88,10.31c4.08,1.509,7.896-1.673,9.226-5.238c17.452-46.789,34.904-93.579,52.357-140.368
				c14.103-37.811,28.212-75.62,42.316-113.431c3.559-9.54,7.118-19.081,10.677-28.622
				C261.29,204.342,246.787,200.458,243.438,209.436z"/></g><g><path fill="#544741" d="M270.86,18.15v76.16c-4.75-1.22-9.73-1.87-14.86-1.87s-10.11,0.65-14.86,1.87V18.15H270.86z"/><path d="M263.36,18.15c0,25.387,0,50.773,0,76.16c3.165-2.411,6.329-4.821,9.494-7.232c-11.205-2.693-22.502-2.693-33.708,0
				c3.165,2.411,6.329,4.821,9.494,7.232c0-25.387,0-50.773,0-76.16c-2.5,2.5-5,5-7.5,7.5c9.907,0,19.813,0,29.72,0
				c9.673,0,9.673-15,0-15c-9.907,0-19.813,0-29.72,0c-4.088,0-7.5,3.412-7.5,7.5c0,25.387,0,50.773,0,76.16
				c0,4.997,4.774,8.366,9.494,7.232c8.569-2.059,17.163-2.059,25.732,0c4.719,1.134,9.494-2.235,9.494-7.232
				c0-25.387,0-50.773,0-76.16C278.36,8.477,263.36,8.477,263.36,18.15z"/></g><g><path fill="#FBB03B" d="M312.32,132.81c-6.39-18.87-22-33.49-41.46-38.5c-4.75-1.22-9.73-1.87-14.86-1.87s-10.11,0.65-14.86,1.87
			c-19.46,5.01-35.07,19.63-41.46,38.5c-2.02,5.99-3.12,12.4-3.12,19.07c0,20.12,9.99,37.9,25.29,48.66c0,0,0.01,0.01,0.02,0.01
			c4.13,2.91,8.66,5.3,13.48,7.08c4.45,1.66,9.16,2.79,14.05,3.32c2.17,0.25,4.37,0.37,6.6,0.37c2.75,0,5.45-0.19,8.09-0.55
			c4.36-0.59,8.56-1.65,12.56-3.14c4.82-1.78,9.34-4.17,13.47-7.08c0.01,0,0.02-0.01,0.03-0.01c15.3-10.76,25.29-28.54,25.29-48.66
			C315.44,145.21,314.34,138.8,312.32,132.81z M256,166.74c-8.21,0-14.86-6.65-14.86-14.86c0-8.21,6.65-14.86,14.86-14.86
			c8.21,0,14.86,6.65,14.86,14.86C270.86,160.09,264.21,166.74,256,166.74z"/><path d="M256,159.24c-9.54-0.428-9.54-14.292,0-14.72C265.551,144.092,265.502,158.814,256,159.24
				c-9.633,0.432-9.675,15.434,0,15c12.553-0.563,21.797-9.807,22.36-22.36c0.562-12.535-10.656-21.835-22.36-22.36
				c-12.535-0.562-21.835,10.656-22.36,22.36c-0.562,12.535,10.656,21.835,22.36,22.36C265.675,174.674,265.633,159.672,256,159.24z
				"/><path d="M319.552,130.816c-8.609-24.425-29.987-42.513-55.98-45.399c-26.986-2.996-53.106,10.72-66.316,34.34
				c-13.518,24.171-9.502,53.885,7.452,75.09c17.673,22.104,49.502,29.445,75.531,19.398
				C312.528,201.784,330.455,164.766,319.552,130.816c-2.945-9.171-17.43-5.249-14.464,3.988c4.067,12.664,3.828,26.258-1.703,38.47
				c-2.392,5.281-5.691,10.041-9.625,14.277c-4.811,5.181-8.274,7.517-14.655,10.876c-24.499,12.896-54.981,2.028-68.45-21.191
				c-12.691-21.879-6.373-51.227,13.565-66.513c21.148-16.213,51.093-13.403,69.503,5.448c5.114,5.236,8.939,11.751,11.364,18.633
				C308.281,143.862,322.776,139.963,319.552,130.816z"/></g><g><path fill="#F79420" d="M270.86,151.88c0,8.21-6.65,14.86-14.86,14.86c-8.21,0-14.86-6.65-14.86-14.86
			c0-8.21,6.65-14.86,14.86-14.86C264.21,137.02,270.86,143.67,270.86,151.88z"/><path d="M263.36,151.88c-0.428,9.54-14.292,9.54-14.72,0C248.211,142.329,262.934,142.378,263.36,151.88
				c0.432,9.633,15.434,9.675,15,0c-0.563-12.553-9.807-21.797-22.36-22.36c-12.535-0.562-21.835,10.656-22.36,22.36
				c-0.562,12.535,10.656,21.835,22.36,22.36c12.535,0.562,21.835-10.656,22.36-22.36
				C278.794,142.205,263.792,142.247,263.36,151.88z"/></g></g></svg>