<?xml version="1.0" encoding="utf-8"?>
<!-- Generator: Adobe Illustrator 28.4.1, SVG Export Plug-In . SVG Version: 6.00 Build 0)  -->
<svg version="1.0" id="Layer_1" xmlns="http://www.w3.org/2000/svg" xmlns:xlink="http://www.w3.org/1999/xlink" x="0px" y="0px"
	 viewBox="0 0 1000 1000" style="enable-background:new 0 0 1000 1000;" xml:space="preserve">
<style type="text/css">
	.st0{fill-rule:evenodd;clip-rule:evenodd;fill:#FEE8B9;}
	.st1{fill:#34485C;}
	.st2{fill:#FCD062;}
	.st3{fill:#F8B84E;}
	.st4{fill:#F17F53;}
	.st5{fill:#617A8D;}
	.st6{opacity:0.14;}
	.st7{fill:#787DFF;}
	.st8{fill:#333232;}
</style>
<g transform="translate(15.5 -1688.538)">
	<path class="st0" d="M387.02,1887.32l-4.23-39.95c-1.19-11.4-0.06-22.72,3.3-32.28l37.01-106.01c3.32-9.52,11.25-12.22,17.68-6.03
		c1.1,1.06,2.12,2.35,3.02,3.83l56.26,92.39c6.66,10.94,11.08,24.62,12.59,39.02l1.42,13.41c1.92,18.15-5.79,33.84-17.22,35.05
		l-101.76,10.77C391.27,1897.94,387.66,1893.37,387.02,1887.32z"/>
	<path class="st1" d="M428.08,1692.29l-15.34,46.62c-1.16,4.68,1.46,10.09,4.74,9.75l40.27-4.27c3.28-0.34,4.7-6.16,2.6-10.49
		l-24.94-42.36c-2.12-4.34-6.16-3.91-7.32,0.78V1692.29z"/>
	<path class="st2" d="M483.7,2672.51l16.29-1.73c7.4-0.78,12.31-11.78,10.96-24.56l-83.74-790.98c-1.35-12.78-8.46-22.5-15.86-21.72
		l-16.29,1.73c-7.4,0.78-12.31,11.78-10.96,24.56l83.74,790.98C469.19,2663.56,476.3,2673.29,483.7,2672.51z"/>
	
		<rect x="469.07" y="1827.32" transform="matrix(0.9944 -0.1053 0.1053 0.9944 -234.024 64.1778)" class="st3" width="43.36" height="841.91"/>
	<path class="st4" d="M569.95,2663.37l16.29-1.73c7.4-0.78,12.31-11.78,10.96-24.56l-83.74-790.98
		c-1.35-12.78-8.46-22.5-15.86-21.72l-16.29,1.73c-7.4,0.78-12.31,11.78-10.96,24.56l83.74,790.98
		C555.43,2654.43,562.55,2664.16,569.95,2663.37z"/>
	
		<rect x="447.56" y="1830.75" transform="matrix(0.9944 -0.1053 0.1053 0.9944 -234.5655 60.7906)" class="st2" width="21.68" height="841.91"/>
	
		<rect x="512.25" y="1823.9" transform="matrix(0.9944 -0.1053 0.1053 0.9944 -233.4844 67.5653)" class="st4" width="21.68" height="841.91"/>
	<path class="st5" d="M511.77,2688.08l50.28-5.33c21.83-2.31,38.3-15.95,36.76-30.46l-1.69-15.88
		c-1.54-14.51-20.49-24.41-42.32-22.1l-50.28,5.33c-21.83,2.31-38.3,15.95-36.76,30.46l1.69,15.88
		C470.99,2680.49,489.94,2690.4,511.77,2688.08z"/>
	
		<rect x="464.75" y="2582.98" transform="matrix(0.9944 -0.1053 0.1053 0.9944 -272.6445 70.3398)" class="st5" width="130.08" height="68.21"/>
	
		<rect x="462.95" y="2583.08" transform="matrix(0.9944 -0.1053 0.1053 0.9944 -270.8528 70.0549)" class="st1" width="130.08" height="33.8"/>
</g>
<g transform="matrix(1.25 0 0 -1.25 0 47.5)" class="st6">
	<path class="st7" d="M679.42-174.88c7.35-29.97-10.98-60.24-40.97-67.59c-0.02,0-0.02,0-0.04,0L203.94-348.95
		c-29.99-7.35-60.26,10.99-67.63,40.99v0.02l-19.97,81.47c-7.33,29.99,11.03,60.28,41.02,67.63l434.5,106.43
		c29.97,7.37,60.24-10.98,67.61-40.95c0-0.02,0-0.02,0-0.04L679.42-174.88z"/>
	<path class="st8" d="M201.15-220.07c1.83-7.5-2.77-15.07-10.27-16.9c-7.5-1.83-15.07,2.77-16.9,10.27l-16.62,67.89l27.15,6.66
		L201.15-220.07z M259.04-162.73c1.83-7.5-2.75-15.07-10.25-16.9c-7.5-1.83-15.07,2.75-16.9,10.25l-6.66,27.17l27.17,6.66
		C252.41-135.56,259.04-162.73,259.04-162.73z M336.92-186.81c1.83-7.5-2.75-15.07-10.25-16.9s-15.07,2.75-16.9,10.25l-16.64,67.89
		l27.17,6.64L336.92-186.81z M394.83-129.46c1.85-7.48-2.73-15.03-10.21-16.88c-0.02,0-0.02,0-0.04,0
		c-7.48-1.85-15.03,2.71-16.88,10.19c0,0.02,0,0.04-0.02,0.06l-6.66,27.17c9.33,2.26,17.84,4.36,27.17,6.64L394.83-129.46z
		 M472.7-153.54c1.83-7.5-2.75-15.07-10.25-16.9c-7.5-1.83-15.07,2.75-16.9,10.25l-16.62,67.89l27.15,6.66L472.7-153.54z
		 M608.49-120.3c1.85-7.48-2.73-15.03-10.21-16.88c-0.02,0-0.02,0-0.04,0c-7.48-1.85-15.05,2.71-16.9,10.19c0,0.02,0,0.04-0.02,0.06
		L564.7-59.05l27.15,6.66L608.49-120.3z M530.61-96.18c2.08-7.44-2.26-15.15-9.7-17.22s-15.15,2.26-17.22,9.7
		c-0.07,0.28-0.15,0.58-0.21,0.86l-6.64,27.17l27.13,6.66C523.95-69.03,530.61-96.18,530.61-96.18z"/>
</g>
<g transform="matrix(1.25 0 0 -1.25 0 47.5)">
	<path class="st7" d="M687.83-158.94c7.45-30.41-11.13-61.11-41.56-68.57c-0.02,0-0.02,0-0.04,0L205.48-335.53
		c-30.42-7.45-61.15,11.17-68.61,41.6v0.02l-20.26,82.62c-7.45,30.42,11.17,61.15,41.62,68.61L598.98-34.7
		c30.41,7.47,61.11-11.13,68.59-41.54c0-0.02,0-0.02,0-0.04L687.83-158.94z"/>
	<path class="st8" d="M202.63-204.78c1.86-7.61-2.81-15.29-10.41-17.15c-7.61-1.86-15.29,2.81-17.15,10.41l-16.84,68.87l27.54,6.75
		L202.63-204.78z M261.38-146.59c1.86-7.61-2.79-15.29-10.39-17.15s-15.29,2.79-17.15,10.39l-6.75,27.56l27.56,6.75
		C254.64-119.05,261.38-146.59,261.38-146.59z M340.38-171.04c1.86-7.61-2.79-15.29-10.39-17.15s-15.29,2.79-17.15,10.39
		l-16.88,68.87l27.56,6.73L340.38-171.04z M399.12-112.85c1.88-7.59-2.77-15.25-10.36-17.13c-0.02,0-0.02,0-0.04,0
		c-7.59-1.88-15.25,2.75-17.13,10.34c0,0.02,0,0.04-0.02,0.06l-6.75,27.56c9.46,2.3,18.1,4.42,27.56,6.73L399.12-112.85z
		 M478.12-137.29c1.86-7.61-2.79-15.29-10.39-17.15c-7.61-1.86-15.29,2.79-17.15,10.39l-16.86,68.87l27.54,6.75L478.12-137.29z
		 M615.87-103.57c1.88-7.59-2.77-15.25-10.36-17.13c-0.02,0-0.02,0-0.04,0c-7.59-1.88-15.27,2.75-17.15,10.34
		c0,0.02,0,0.04-0.02,0.06l-16.86,68.87l27.54,6.75L615.87-103.57z M536.86-79.08c2.11-7.55-2.3-15.36-9.84-17.47
		c-7.55-2.11-15.36,2.3-17.47,9.84c-0.08,0.28-0.15,0.59-0.21,0.87l-6.73,27.56l27.52,6.75C530.11-51.54,536.86-79.08,536.86-79.08z
		"/>
</g>
</svg>
