<?xml version="1.0" encoding="utf-8"?>
<!-- Generator: Adobe Illustrator 28.4.1, SVG Export Plug-In . SVG Version: 6.00 Build 0)  -->
<svg version="1.0" id="Layer_1" xmlns="http://www.w3.org/2000/svg" xmlns:xlink="http://www.w3.org/1999/xlink" x="0px" y="0px"
	 viewBox="0 0 1368.7 610.75" style="enable-background:new 0 0 1368.7 610.75;" xml:space="preserve">
<style type="text/css">
	.st0{fill:#C0C0C2;}
	.st1{fill:#8F8E93;}
	.st2{fill-rule:evenodd;clip-rule:evenodd;fill:#FEE8B9;}
	.st3{fill:#34485C;}
	.st4{fill:#FCD062;}
	.st5{fill:#F8B84E;}
	.st6{fill:#F17F53;}
	.st7{fill:#617A8D;}
	.st8{opacity:0.14;}
	.st9{fill:#787DFF;}
	.st10{fill:#333232;}
	.st11{fill:#374F68;}
	.st12{fill:#425B72;}
	.st13{fill:#DAD7E5;}
	.st14{fill:#EDEBF2;}
	.st15{fill:#E0DFEA;}
	.st16{fill:#245862;}
	.st17{fill:#D0C3CD;}
	.st18{fill:#CCD1D9;}
	.st19{fill:#D770AD;}
	.st20{fill:#656D78;}
	.st21{fill:#E6E9ED;}
	.st22{fill:#EC87C0;}
	.st23{fill:#60C5B8;}
	.st24{fill:#25B39E;}
	.st25{fill:none;stroke:#60C5B8;stroke-linecap:round;stroke-linejoin:round;}
	.st26{fill:#0E7DCA;}
	.st27{fill:#2498CF;}
	.st28{fill:#46B9D5;}
	.st29{fill:#0C5F90;}
	.st30{fill:#4CBA05;}
	.st31{fill:#6FCD29;}
	.st32{fill:#97EE52;}
	.st33{fill:#409008;}
	.st34{opacity:0.16;}
	.st35{fill:#EC5647;}
	.st36{fill:#CECBBE;}
	.st37{fill:#FFC33F;}
	.st38{fill:#D39924;}
	.st39{fill:#E8AB31;}
	.st40{fill:#4A2630;}
	.st41{fill:#E0DDD3;}
	.st42{fill:#B3B3B3;}
	.st43{fill:#CCCCCC;}
	.st44{fill:#D8D8D8;}
	.st45{fill:#0071BC;}
	.st46{fill:#087EBF;}
	.st47{fill:#BAB6B6;}
	.st48{fill:#C1C1C1;}
	.st49{fill:#999999;}
</style>
<g>
	<path class="st0" d="M234.6,401.72l11.81-0.71l1.03,17.17c0.13,2.15,0.19,3.22,0.32,5.37c0.52,8.59,2.11,17.11,4.84,26.64
		c1.27,3.16,1.53,7.45,3.87,10.54c2.66,8.46,7.47,16.79,12.22,24.04c1.2,2.08,1.27,3.16,2.41,4.16s2.34,3.09,3.48,4.1
		c4.75,7.26,10.57,14.45,17.39,20.5c1.14,1.01,2.34,3.09,3.48,4.1c1.14,1.01,2.28,2.02,4.49,2.96c6.83,6.05,14.66,10.97,22.44,14.81
		c1.14,1.01,3.35,1.95,4.49,2.96s3.35,1.95,4.42,1.89c7.77,3.84,16.55,6.54,25.33,9.25c3.28,0.88,6.57,1.76,10.93,2.57
		c8.72,1.63,17.37,2.19,27.03,1.6c2.15-0.13,3.22-0.19,5.37-0.32c2.15-0.13,3.22-0.19,5.37-0.32c8.59-0.52,18.18-2.17,26.64-4.84
		c3.16-1.27,6.31-2.53,10.54-3.87c8.46-2.66,16.79-7.47,24.04-12.22c-0.06-1.07,1.01-1.14,3.09-2.34c1.01-1.14,2.02-2.28,4.1-3.48
		c7.26-4.75,14.45-10.57,19.42-17.33c2.08-1.2,3.09-2.34,4.03-4.55c1.01-1.14,2.02-2.28,3.03-3.41
		c6.05-6.83,10.97-14.66,14.81-22.44c1.01-1.14,1.95-3.35,2.96-4.49c1.01-1.14,1.95-3.35,1.89-4.42c3.84-7.77,6.54-16.55,9.25-25.33
		c0.88-3.28,1.76-6.57,2.57-10.93c1.63-8.72,2.19-17.37,1.6-27.03c-0.13-2.15-0.19-3.22-0.32-5.37l-1.03-17.17l11.81-0.71
		c6.44-0.39,11.48-6.08,11.1-12.52l-2.78-46.15c-0.39-6.44-6.08-11.48-12.52-11.1l-310.2,18.68c-6.44,0.39-11.48,6.08-11.1,12.52
		l2.78,46.15C222.54,398.14,228.16,402.11,234.6,401.72z M315.11,396.87l148.12-8.92l1.03,17.17c2.46,40.79-28.81,76.07-69.6,78.52
		c-40.79,2.46-76.07-28.81-78.52-69.6L315.11,396.87z"/>
	<path class="st1" d="M449.78,343.52l-1.36-22.54l10.73-0.65l1.36,22.54c0.19,3.22-1.82,5.5-5.04,5.69
		C452.25,348.76,449.98,346.74,449.78,343.52z M381.09,347.65l-1.36-22.54l10.73-0.65l1.36,22.54c0.19,3.22-1.82,5.5-5.04,5.69
		C383.56,352.89,381.28,350.87,381.09,347.65z M312.39,351.79l-1.36-22.54l10.73-0.65l1.36,22.54c0.19,3.22-1.82,5.5-5.04,5.69
		C314.86,357.03,312.59,355.01,312.39,351.79z M483.42,329.64l-0.71-11.81l10.73-0.65l0.71,11.81c0.19,3.22-1.82,5.5-5.04,5.69
		C485.89,334.88,483.61,332.86,483.42,329.64z M414.72,333.78l-0.71-11.81l10.73-0.65l0.71,11.81c0.19,3.22-1.82,5.5-5.04,5.69
		S414.92,337,414.72,333.78z M346.03,337.92l-0.71-11.81l10.73-0.65l0.71,11.81c0.19,3.22-1.82,5.5-5.04,5.69
		C348.5,343.15,346.22,341.14,346.03,337.92z M277.33,342.05l-0.71-11.81l10.73-0.65l0.71,11.81c0.19,3.22-1.82,5.5-5.04,5.69
		C279.8,347.29,277.53,345.27,277.33,342.05z M243.7,355.93l-1.36-22.54l10.73-0.65l1.36,22.54c0.19,3.22-1.82,5.5-5.04,5.69
		C246.17,361.17,243.89,359.15,243.7,355.93z M518.48,339.38l-1.36-22.54l10.73-0.65l1.36,22.54c0.19,3.22-1.82,5.5-5.04,5.69
		C520.95,344.62,518.67,342.6,518.48,339.38z M393.43,552.67l-1.36-22.54c-0.19-3.22,1.82-5.5,5.04-5.69
		c3.22-0.19,5.5,1.82,5.69,5.04l1.36,22.54c-2.15,0.13-3.22,0.19-5.37,0.32C396.72,553.55,395.58,552.54,393.43,552.67z"/>
	<path class="st1" d="M393.43,552.67l-1.36-22.54c-0.19-3.22,1.82-5.5,5.04-5.69c3.22-0.19,5.5,1.82,5.69,5.04l1.36,22.54
		c-2.15,0.13-3.22,0.19-5.37,0.32C396.72,553.55,395.58,552.54,393.43,552.67z"/>
	<path class="st1" d="M393.43,552.67l-1.36-22.54c-0.19-3.22,1.82-5.5,5.04-5.69c3.22-0.19,5.5,1.82,5.69,5.04l1.36,22.54
		c-2.15,0.13-3.22,0.19-5.37,0.32C396.72,553.55,395.58,552.54,393.43,552.67z M321.3,535.47l4.79-9.98
		c0.94-2.21,3.09-2.34,4.1-3.48c1.07-0.06,2.15-0.13,3.28,0.88c2.21,0.94,3.48,4.1,2.6,7.38l0,0l-4.79,9.98
		c-2.21-0.94-3.28-0.88-4.42-1.89C324.65,537.42,323.51,536.41,321.3,535.47z M267.62,484.84l9.34-5.95
		c1.07-0.06,2.08-1.2,3.16-1.27c3.22-0.19,5.5,1.82,5.69,5.04c0.13,2.15-0.88,3.28-1.89,4.42l-9.34,5.95
		c-1.14-1.01-2.34-3.09-3.48-4.1C269.89,486.85,268.76,485.84,267.62,484.84z M247.45,418.18l-0.32-5.37l22.54-1.36
		c3.22-0.19,5.5,1.82,5.69,5.04c0.19,3.22-1.82,5.5-5.04,5.69l-22.54,1.36C247.7,422.48,247.57,420.33,247.45,418.18z
		 M505.05,402.67c-0.19-3.22,1.82-5.5,5.04-5.69l22.54-1.36l0.32,5.37c0.13,2.15,0.19,3.22,0.32,5.37l-22.54,1.36
		C507.52,407.91,505.25,405.89,505.05,402.67z M476.69,486.25c-0.06-1.07,2.02-2.28,3.09-2.34s3.28,0.88,4.42,1.89l16,15.2
		c-1.01,1.14-2.02,2.28-3.03,3.41c-0.94,2.21-1.95,3.35-4.03,4.55l-17.07-15.13C474.87,491.75,474.67,488.53,476.69,486.25
		C475.62,486.31,475.62,486.31,476.69,486.25z M290.89,513.6l15.13-17.07c1.01-1.14,2.08-1.2,4.23-1.33
		c1.07-0.06,3.28,0.88,4.36,0.81c2.28,2.02,2.47,5.24,0.45,7.51l0,0l-15.13,17.07c-1.14-1.01-2.28-2.02-4.49-2.96
		C294.24,515.55,293.11,514.54,290.89,513.6z M429.77,530.01l1.07-0.06c2.15-0.13,4.42,1.89,5.63,3.97l3.87,10.54
		c-3.16,1.27-6.31,2.53-10.54,3.87l-3.87-10.54C425.67,533.49,427.69,531.21,429.77,530.01L429.77,530.01z M356.61,549.5l2.57-10.93
		c0.94-2.21,2.96-4.49,5.11-4.62l1.07-0.06c3.28,0.88,4.49,2.96,4.68,6.18l0,0L367.48,551C363.12,550.18,359.9,550.38,356.61,549.5z
		"/>
	<path class="st1" d="M393.43,552.67l-1.36-22.54c-0.19-3.22,1.82-5.5,5.04-5.69c3.22-0.19,5.5,1.82,5.69,5.04l1.36,22.54
		c-2.15,0.13-3.22,0.19-5.37,0.32C396.72,553.55,395.58,552.54,393.43,552.67z M503.5,466.32c0.94-2.21,3.03-3.41,4.1-3.48
		c1.07-0.06,2.15-0.13,3.28,0.88l8.91,4.85c-0.94,2.21-0.88,3.28-1.89,4.42c-1.01,1.14-1.95,3.35-2.96,4.49l-9.98-4.79
		C502.75,471.75,501.55,469.67,503.5,466.32z M464.38,532.24l-5.95-9.34c-1.2-2.08-1.4-5.3,1.69-7.64l0,0c0,0,1.01-1.14,2.08-1.2
		c2.15-0.13,4.36,0.81,5.56,2.9l5.95,9.34L464.38,532.24z M476.69,486.25c-0.06-1.07,2.02-2.28,3.09-2.34s3.28,0.88,4.42,1.89
		l16,15.2c-1.01,1.14-2.02,2.28-3.03,3.41c-0.94,2.21-1.95,3.35-4.03,4.55l-17.07-15.13C474.87,491.75,474.67,488.53,476.69,486.25
		C475.62,486.31,475.62,486.31,476.69,486.25z M252.6,450.19l10.54-3.87l1.07-0.06c2.15-0.13,4.36,0.81,5.63,3.97
		c1.27,3.16-0.75,5.43-3.91,6.7l0,0l-10.54,3.87C255.2,457.57,253.87,453.35,252.6,450.19z M513.5,435.56
		c0.94-2.21,2.96-4.49,5.11-4.62l1.07-0.06l10.93,2.57c-0.88,3.28-1.69,7.64-2.57,10.93l-10.93-2.57
		C514.89,440.86,513.62,437.7,513.5,435.56L513.5,435.56z M247.45,418.18l-0.32-5.37l22.54-1.36c3.22-0.19,5.5,1.82,5.69,5.04
		c0.19,3.22-1.82,5.5-5.04,5.69l-22.54,1.36C247.7,422.48,247.57,420.33,247.45,418.18z M505.05,402.67
		c-0.19-3.22,1.82-5.5,5.04-5.69l22.54-1.36l0.32,5.37c0.13,2.15,0.19,3.22,0.32,5.37l-22.54,1.36
		C507.52,407.91,505.25,405.89,505.05,402.67z"/>
</g>
<g transform="translate(15.5 -1688.538)">
	<path class="st2" d="M127.85,1827.79l-2.23-21.06c-0.63-6.01-0.03-11.98,1.74-17.02l19.51-55.89c1.75-5.02,5.93-6.44,9.32-3.18
		c0.58,0.56,1.12,1.24,1.59,2.02l29.66,48.71c3.51,5.77,5.84,12.98,6.64,20.57l0.75,7.07c1.01,9.57-3.05,17.84-9.08,18.48
		l-53.65,5.68C130.09,1833.39,128.19,1830.98,127.85,1827.79z"/>
	<path class="st3" d="M149.5,1724.97l-8.09,24.58c-0.61,2.47,0.77,5.32,2.5,5.14l21.23-2.25c1.73-0.18,2.48-3.25,1.37-5.53
		l-13.15-22.33c-1.12-2.29-3.25-2.06-3.86,0.41L149.5,1724.97z"/>
	<path class="st4" d="M178.82,2241.75l8.59-0.91c3.9-0.41,6.49-6.21,5.78-12.95l-44.15-417.01c-0.71-6.74-4.46-11.86-8.36-11.45
		l-8.59,0.91c-3.9,0.41-6.49,6.21-5.78,12.95l44.15,417.01C171.17,2237.03,174.92,2242.16,178.82,2241.75z"/>
	
		<rect x="171.06" y="1796.24" transform="matrix(0.9944 -0.1053 0.1053 0.9944 -211.4475 30.4259)" class="st5" width="22.86" height="443.88"/>
	<path class="st6" d="M224.29,2236.93l8.59-0.91c3.9-0.41,6.49-6.21,5.78-12.95l-44.15-417.01c-0.71-6.74-4.46-11.86-8.36-11.45
		l-8.59,0.91c-3.9,0.41-6.49,6.21-5.78,12.95l44.15,417.01C216.64,2232.22,220.39,2237.35,224.29,2236.93z"/>
	
		<rect x="159.72" y="1798.05" transform="matrix(0.9944 -0.1053 0.1053 0.9944 -211.7323 28.6409)" class="st4" width="11.43" height="443.88"/>
	
		<rect x="193.83" y="1794.44" transform="matrix(0.9944 -0.1053 0.1053 0.9944 -211.1628 32.2108)" class="st6" width="11.43" height="443.88"/>
	<path class="st7" d="M193.62,2249.96l26.51-2.81c11.51-1.22,20.19-8.41,19.38-16.06l-0.89-8.37c-0.81-7.65-10.8-12.87-22.31-11.65
		l-26.51,2.81c-11.51,1.22-20.19,8.41-19.38,16.06l0.89,8.37C172.12,2245.96,182.11,2251.18,193.62,2249.96z"/>
	
		<rect x="168.78" y="2194.65" transform="matrix(0.9944 -0.1053 0.1053 0.9944 -231.8038 33.6735)" class="st7" width="68.58" height="35.96"/>
	
		<rect x="167.83" y="2194.7" transform="matrix(0.9944 -0.1053 0.1053 0.9944 -230.8594 33.5228)" class="st3" width="68.58" height="17.82"/>
</g>
<g transform="matrix(1.25 0 0 -1.25 0 47.5)" class="st8">
	<path class="st9" d="M305.22-100.37c3.93-16.03-5.87-32.22-21.91-36.15c-0.01,0-0.01,0-0.02,0L50.92-193.47
		c-16.04-3.93-32.23,5.88-36.17,21.92c0,0,0,0.01,0,0.01L4.07-127.97C0.15-111.93,9.97-95.73,26.01-91.8l232.38,56.92
		c16.03,3.94,32.22-5.87,36.16-21.9c0-0.01,0-0.01,0-0.02L305.22-100.37z"/>
	<path class="st10" d="M49.43-124.54c0.98-4.01-1.48-8.06-5.49-9.04s-8.06,1.48-9.04,5.49l-8.89,36.31l14.52,3.56L49.43-124.54z
		 M80.39-93.87c0.98-4.01-1.47-8.06-5.48-9.04c-4.01-0.98-8.06,1.47-9.04,5.48L62.31-82.9l14.53,3.56
		C76.84-79.34,80.39-93.87,80.39-93.87z M122.04-106.75c0.98-4.01-1.47-8.06-5.48-9.04c-4.01-0.98-8.06,1.47-9.04,5.48L98.62-74
		l14.53,3.55L122.04-106.75z M153.01-76.08c0.99-4-1.46-8.04-5.46-9.03c-0.01,0-0.01,0-0.02,0c-4-0.99-8.04,1.45-9.03,5.45
		c0,0.01,0,0.02-0.01,0.03l-3.56,14.53c4.99,1.21,9.54,2.33,14.53,3.55L153.01-76.08z M194.66-88.96c0.98-4.01-1.47-8.06-5.48-9.04
		c-4.01-0.98-8.06,1.47-9.04,5.48l-8.89,36.31l14.52,3.56L194.66-88.96z M267.28-71.18c0.99-4-1.46-8.04-5.46-9.03
		c-0.01,0-0.01,0-0.02,0c-4-0.99-8.05,1.45-9.04,5.45c0,0.01,0,0.02-0.01,0.03l-8.89,36.31l14.52,3.56L267.28-71.18z M225.63-58.28
		c1.11-3.98-1.21-8.1-5.19-9.21c-3.98-1.11-8.1,1.21-9.21,5.19c-0.04,0.15-0.08,0.31-0.11,0.46l-3.55,14.53l14.51,3.56
		C222.07-43.76,225.63-58.28,225.63-58.28z"/>
</g>
<g transform="matrix(1.25 0 0 -1.25 0 47.5)">
	<path class="st9" d="M307.54-93.39c3.93-16.03-5.87-32.22-21.91-36.15c-0.01,0-0.01,0-0.02,0L53.24-186.49
		C37.2-190.42,21-180.6,17.07-164.56c0,0,0,0.01,0,0.01L6.39-120.99c-3.93,16.04,5.89,32.24,21.94,36.17L260.7-27.89
		c16.03,3.94,32.22-5.87,36.16-21.9c0-0.01,0-0.01,0-0.02L307.54-93.39z"/>
	<path class="st10" d="M51.74-117.56c0.98-4.01-1.48-8.06-5.49-9.04c-4.01-0.98-8.06,1.48-9.04,5.49L28.33-84.8l14.52,3.56
		L51.74-117.56z M82.71-86.88c0.98-4.01-1.47-8.06-5.48-9.04c-4.01-0.98-8.06,1.47-9.04,5.48l-3.56,14.53l14.53,3.56
		C79.16-72.36,82.71-86.88,82.71-86.88z M124.36-99.77c0.98-4.01-1.47-8.06-5.48-9.04c-4.01-0.98-8.06,1.47-9.04,5.48l-8.9,36.31
		l14.53,3.55L124.36-99.77z M155.33-69.09c0.99-4-1.46-8.04-5.46-9.03c-0.01,0-0.01,0-0.02,0c-4-0.99-8.04,1.45-9.03,5.45
		c0,0.01,0,0.02-0.01,0.03l-3.56,14.53c4.99,1.21,9.54,2.33,14.53,3.55L155.33-69.09z M196.98-81.98c0.98-4.01-1.47-8.06-5.48-9.04
		c-4.01-0.98-8.06,1.47-9.04,5.48l-8.89,36.31l14.52,3.56L196.98-81.98z M269.6-64.2c0.99-4-1.46-8.04-5.46-9.03
		c-0.01,0-0.01,0-0.02,0c-4-0.99-8.05,1.45-9.04,5.45c0,0.01,0,0.02-0.01,0.03l-8.89,36.31l14.52,3.56L269.6-64.2z M227.95-51.29
		c1.11-3.98-1.21-8.1-5.19-9.21c-3.98-1.11-8.1,1.21-9.21,5.19c-0.04,0.15-0.08,0.31-0.11,0.46l-3.55,14.53l14.51,3.56
		C224.39-36.77,227.95-51.29,227.95-51.29z"/>
</g>
<g>
	<path class="st11" d="M556.78,435.54c1.55-238.09,1.2-165.43,2.01-301.3l75.37,0.49c-0.12,16.4-0.67,84.53-2.35,301.41
		L556.78,435.54z"/>
	<path class="st12" d="M568.09,435.62c1.5-222.88,1.23-185.11,1.64-226.16c0.3-35.27,29.08-63.64,64.35-63.43
		c-1.07,131.85-0.58,64.68-2.27,290.1L568.09,435.62z"/>
	
		<rect x="567.43" y="416.88" transform="matrix(7.230216e-03 -1 1 7.230216e-03 135.4324 1045.4932)" class="st11" width="53.65" height="75.32"/>
	<path class="st13" d="M558.79,134.24l38.2-75.15l37.17,75.64L558.79,134.24z"/>
	<polygon class="st14" points="575.81,134.31 605.29,76.17 634.16,134.73 	"/>
	
		<rect x="587.67" y="209.75" transform="matrix(7.230216e-03 -1 1 7.230216e-03 343.9142 841.2345)" class="st13" width="15.91" height="75.32"/>
	<path class="st13" d="M664.95,317.7c3.13-3.12,8.19-3.11,11.31,0.02c1.52,1.52,2.36,3.59,2.33,5.74l-1.12,131.68
		c-0.55,4.38-4.55,7.49-8.93,6.94c-3.69-0.46-6.57-3.41-6.96-7.11C662.5,312.03,661.59,321.01,664.95,317.7z"/>
	<path class="st11" d="M573.42,559.15c-11.23-11.39-8.14-23.52-7.96-48.29l56.54,0.41l-0.21,28.61
		c-0.38,15.63-13.36,27.99-28.99,27.61C585.5,567.31,578.56,564.32,573.42,559.15z"/>
	<path class="st12" d="M580,564c-2.29-4-3.5-8.53-3.52-13.14c0.13-15.6,12.87-28.16,28.47-28.07l16.96,0.12l-0.12,16.96
		c-0.42,15.63-13.43,27.96-29.05,27.54C588.28,567.3,583.91,566.13,580,564z"/>
	<path class="st11" d="M556.19,501.35l-0.02-28.05l75.71,0.49l-0.2,28.27c-0.02,5.17-4.23,9.34-9.39,9.32c-0.02,0-0.04,0-0.06,0
		l-56.54-0.41c-5.17,0.07-9.41-4.05-9.49-9.22C556.19,501.62,556.19,501.49,556.19,501.35z"/>
	<path class="st12" d="M567.43,510.82c0.08-14.53,11.93-26.24,26.46-26.16c0.03,0,0.05,0,0.08,0l37.82,0.44l-0.12,16.96
		c-0.02,5.17-4.23,9.34-9.39,9.32c-0.02,0-0.04,0-0.06,0L567.43,510.82z"/>
	<path class="st13" d="M556.23,481l0.39-53.71l113.08,0.82c4.42,0.01,7.98,3.6,7.97,8.02c0,0.02,0,0.04,0,0.07l-0.19,18.94
		c-0.4,14.68-12.31,26.42-26.99,26.61L556.23,481z"/>
	<path class="st14" d="M567.53,481.08c0.2-23.41,19.3-42.24,42.71-42.1l67.56,0.77l-0.34,15.38c-0.4,14.68-12.31,26.42-26.99,26.61
		L567.53,481.08z"/>
	
		<rect x="593.38" y="215.49" transform="matrix(7.230216e-03 -1 1 7.230216e-03 349.5267 847.0062)" class="st14" width="15.91" height="63.97"/>
</g>
<g>
	<path class="st15" d="M707.96,214.96c2.95,0.05,5.34-2.32,5.35-5.3c0-0.01,0-0.01,0-0.02l-0.04-43.22c0-2.98-2.39-5.43-5.34-5.48
		c-0.01,0-0.01,0-0.02,0l-72.65-0.64l0.05,54.02L707.96,214.96L707.96,214.96z"/>
	<path class="st16" d="M681.2,219.96l-40.54-0.16c-2.96-0.04-5.35-2.5-5.36-5.48l-0.05-54.02c0-2.98,2.39-5.37,5.35-5.32l40.54,0.16
		c2.96,0.04,5.35,2.5,5.36,5.48l0.05,54.02C686.55,217.62,684.16,220.01,681.2,219.96z"/>
	<path class="st17" d="M702.61,214.88c2.95,0.05,5.34-2.32,5.35-5.3c0-0.01,0-0.01,0-0.02l-0.04-43.22c0-2.98-2.39-5.43-5.34-5.48
		c-0.01,0-0.01,0-0.02,0l5.35,0.08c2.95,0.04,5.35,2.48,5.36,5.46c0,0.01,0,0.01,0,0.02l0.04,43.22c0.01,2.98-2.38,5.36-5.33,5.32
		c-0.01,0-0.01,0-0.02,0L702.61,214.88z"/>
</g>
<g>
	<path class="st18" d="M805.63,329.44c4.67,3.21,5.86,9.6,2.66,14.27c-0.71,1.04-1.61,1.94-2.66,2.66
		c2.45,5.11,0.29,11.23-4.82,13.68c-1.14,0.54-2.36,0.87-3.62,0.97c-0.45,5.65-5.39,9.86-11.03,9.42c-1.26-0.1-2.48-0.43-3.62-0.97
		c-3.21,4.67-9.6,5.86-14.27,2.66c-1.04-0.71-1.94-1.61-2.66-2.66c-5.11,2.45-11.23,0.29-13.68-4.82c-0.54-1.14-0.87-2.36-0.97-3.62
		c-5.65-0.45-9.86-5.39-9.42-11.03c0.1-1.26,0.43-2.48,0.97-3.62c-4.67-3.21-5.86-9.6-2.66-14.27c0.71-1.04,1.61-1.94,2.66-2.66
		c-2.45-5.11-0.29-11.23,4.82-13.68c1.14-0.54,2.36-0.87,3.62-0.97c0.45-5.65,5.39-9.86,11.03-9.42c1.26,0.1,2.48,0.43,3.62,0.97
		c3.21-4.67,9.6-5.86,14.27-2.66c1.04,0.71,1.94,1.61,2.66,2.66c5.11-2.45,11.23-0.29,13.68,4.82c0.54,1.14,0.87,2.36,0.97,3.62
		c5.65,0.45,9.86,5.39,9.42,11.03C806.51,327.07,806.18,328.3,805.63,329.44z M798.84,337.9c0-13.68-11.09-24.76-24.76-24.76
		s-24.76,11.09-24.76,24.76c0,13.68,11.09,24.76,24.76,24.76c13.67,0.01,24.75-11.07,24.76-24.73
		C798.84,337.92,798.84,337.91,798.84,337.9z"/>
	<path class="st19" d="M774.07,268.12c38.54,0,69.78,31.24,69.78,69.78s-31.24,69.78-69.78,69.78s-69.78-31.24-69.78-69.78
		C704.29,299.36,735.54,268.12,774.07,268.12z M834.85,337.9c0-33.57-27.21-60.78-60.78-60.78s-60.78,27.21-60.78,60.78
		s27.21,60.78,60.78,60.78C807.64,398.68,834.85,371.47,834.85,337.9z"/>
	<path class="st20" d="M778.58,337.9c0-2.49-2.02-4.5-4.5-4.5s-4.5,2.02-4.5,4.5c0,2.49,2.02,4.5,4.5,4.5
		C776.56,342.4,778.57,340.39,778.58,337.9z M774.07,326.65c6.22,0,11.26,5.04,11.26,11.26s-5.04,11.26-11.26,11.26
		s-11.26-5.04-11.26-11.26C762.82,331.69,767.86,326.65,774.07,326.65z"/>
	<path class="st21" d="M785.33,337.9c0-6.22-5.04-11.26-11.26-11.26s-11.26,5.04-11.26,11.26s5.04,11.26,11.26,11.26
		C780.29,349.15,785.33,344.12,785.33,337.9z M774.07,313.14c13.68,0,24.76,11.09,24.76,24.76c0,13.68-11.09,24.76-24.76,24.76
		s-24.76-11.09-24.76-24.76c-0.01-13.67,11.07-24.75,24.73-24.76C774.06,313.14,774.07,313.14,774.07,313.14z"/>
	<path class="st22" d="M774.07,277.12c33.57,0,60.78,27.21,60.78,60.78s-27.21,60.78-60.78,60.78s-60.78-27.21-60.78-60.78
		C713.3,304.34,740.51,277.13,774.07,277.12z M810.09,337.9c0-3.38-1.67-6.55-4.46-8.46c2.45-5.11,0.29-11.23-4.82-13.68
		c-1.14-0.54-2.36-0.87-3.62-0.97c-0.45-5.65-5.39-9.86-11.03-9.42c-1.26,0.1-2.48,0.43-3.62,0.97c-3.21-4.67-9.6-5.86-14.27-2.66
		c-1.04,0.71-1.94,1.61-2.66,2.66c-5.11-2.45-11.23-0.29-13.68,4.82c-0.54,1.14-0.87,2.36-0.97,3.62
		c-5.65,0.45-9.86,5.39-9.42,11.03c0.1,1.26,0.43,2.48,0.97,3.62c-4.67,3.21-5.86,9.6-2.66,14.27c0.71,1.04,1.61,1.94,2.66,2.66
		c-2.45,5.11-0.29,11.23,4.82,13.68c1.14,0.54,2.36,0.87,3.62,0.97c0.45,5.65,5.39,9.86,11.03,9.42c1.26-0.1,2.48-0.43,3.62-0.97
		c3.21,4.67,9.6,5.86,14.27,2.66c1.04-0.71,1.94-1.61,2.66-2.66c5.11,2.45,11.23,0.29,13.68-4.82c0.54-1.14,0.87-2.36,0.97-3.62
		c5.65-0.45,9.86-5.39,9.42-11.03c-0.1-1.26-0.43-2.48-0.97-3.62C808.43,344.45,810.09,341.29,810.09,337.9z"/>
	<path class="st18" d="M774.07,358.16c-11.18-0.01-20.25-9.08-20.26-20.26c0-1.24,1.01-2.25,2.25-2.25s2.25,1.01,2.25,2.25
		c0.01,8.7,7.06,15.75,15.76,15.76c1.24,0,2.25,1.01,2.25,2.25S775.32,358.16,774.07,358.16z M792.08,340.15
		c-1.24,0-2.25-1.01-2.25-2.25c0,0,0,0,0,0c-0.01-8.7-7.06-15.75-15.76-15.76c-1.24,0-2.25-1.01-2.25-2.25
		c0-1.24,1.01-2.25,2.25-2.25c11.18,0.01,20.25,9.08,20.26,20.26C794.33,339.14,793.33,340.15,792.08,340.15
		C792.08,340.15,792.08,340.15,792.08,340.15z"/>
</g>
<g transform="translate(1 -1022.362)">
	<path class="st3" d="M726.69,1458.1c-3.03,0-5.47,2.44-5.47,5.47v23.84c7.09,9.78,10.92,21.54,10.95,33.62
		c-0.02,12.09-3.85,23.86-10.95,33.65v23.82c0,3.03,2.44,5.47,5.47,5.47h87.56c3.03,0,5.47-2.44,5.47-5.47v-23.84
		c-7.09-9.78-10.92-21.54-10.95-33.62c0.02-12.09,3.85-23.86,10.95-33.65v-23.82c0-3.03-2.44-5.47-5.47-5.47H726.69z"/>
	<path class="st3" d="M748.58,1458.1h43.78c3.02,0,5.47,2.45,5.47,5.47v114.93c0,3.02-2.45,5.47-5.47,5.47h-43.78
		c-3.02,0-5.47-2.45-5.47-5.47v-114.93C743.11,1460.55,745.56,1458.1,748.58,1458.1z"/>
	<path class="st23" d="M759.53,1458.1h32.84c3.03,0,5.47,2.44,5.47,5.47v114.93c0,3.03-2.44,5.47-5.47,5.47h-32.84v-120.4V1458.1z"
		/>
	<path class="st24" d="M754.06,1458.1h-5.47c-3.03,0-5.47,2.44-5.47,5.47v114.93c0,3.03,2.44,5.47,5.47,5.47h5.47v-120.4V1458.1z
		 M770.47,1458.1h21.89c3.03,0,5.47,2.44,5.47,5.47v114.93c0,3.03-2.44,5.47-5.47,5.47h-21.89v-120.4V1458.1z"/>
	<circle class="st3" cx="784.16" cy="1518.3" r="8.21"/>
	<path class="st25" d="M784.16,1512.82v10.91"/>
</g>
<g>
	<path class="st26" d="M961.7,20.46c-2.24,0.17-4.49,0.39-6.72,0.69c-1.87,0.2-3.73,0.47-5.59,0.8
		c-68.95,11.16-119.9,70.29-120.72,140.15c-0.07,4.14,0.05,8.26,0.37,12.51l286.8-21.49C1109.91,73.92,1040.9,14.53,961.7,20.46z
		 M870.92,140.13c16.55-56.32,75.63-88.57,131.94-72.02c29.33,8.61,53.53,29.44,66.42,57.16L870.92,140.13z"/>
	<path class="st27" d="M1001.18,27.04c-14.96-4.53-30.59-6.52-46.2-5.88c-1.87,0.2-3.73,0.47-5.59,0.8
		c-68.95,11.16-119.9,70.29-120.72,140.15c-0.07,4.14,0.05,8.26,0.37,12.51l274.33-20.55C1098.91,94.64,1058.27,44.12,1001.18,27.04
		z M1002.86,68.11c29.33,8.61,53.53,29.44,66.42,57.16l-198.35,14.86C887.47,83.8,946.55,51.56,1002.86,68.11z"/>
	<path class="st28" d="M866.09,83.43c-3.44,0.26-6.44-2.32-6.7-5.77c-0.12-1.59,0.37-3.17,1.38-4.41
		c19.18-23.77,45.48-40.76,75.04-48.47c3.34-0.88,6.76,1.12,7.64,4.46c0.88,3.34-1.12,6.76-4.46,7.64l0,0
		c-26.99,7.03-51,22.55-68.5,44.26C869.39,82.47,867.81,83.3,866.09,83.43z"/>
	
		<rect x="956.38" y="20.43" transform="matrix(0.9972 -0.0747 0.0747 0.9972 0.2296 72.0024)" class="st29" width="12.5" height="25.01"/>
	
		<rect x="990.6" y="29.94" transform="matrix(0.2337 -0.9723 0.9723 0.2337 733.5019 1003.065)" class="st29" width="25.01" height="12.5"/>
	
		<rect x="1028.14" y="45.41" transform="matrix(0.5195 -0.8545 0.8545 0.5195 455.8825 914.0211)" class="st29" width="25.01" height="12.51"/>
	
		<rect x="1059.22" y="71.43" transform="matrix(0.7557 -0.6549 0.6549 0.7557 210.956 720.8784)" class="st29" width="25" height="12.5"/>
	
		<rect x="1080.68" y="106.05" transform="matrix(0.9197 -0.3926 0.3926 0.9197 43.6876 438.2162)" class="st29" width="25.01" height="12.5"/>
	
		<rect x="837.15" y="127.67" transform="matrix(0.1799 -0.9837 0.9837 0.1799 553.7647 944.5914)" class="st29" width="12.5" height="25.01"/>
	
		<rect x="850.41" y="89.44" transform="matrix(0.4716 -0.8818 0.8818 0.4716 362.7792 809.2874)" class="st29" width="12.5" height="25.01"/>
	
		<rect x="874.86" y="57.02" transform="matrix(0.7185 -0.6956 0.6956 0.7185 199.7128 632.4576)" class="st29" width="12.5" height="25.01"/>
	
		<rect x="908.05" y="33.63" transform="matrix(0.8967 -0.4427 0.4427 0.8967 74.064 409.5562)" class="st29" width="12.5" height="25.01"/>
</g>
<g>
	<polygon class="st30" points="870.96,324.92 852.15,73.71 937.33,67.32 974.97,569.74 889.78,576.13 872.31,342.86 	"/>
	<path class="st31" d="M891.59,314.35L873.44,72.11l63.89-4.79l36.29,484.48l-18.1,1.36c-25.29,1.89-47.08-13.84-48.68-35.15
		L891.59,314.35z"/>
	<path class="st32" d="M949.87,377.65l-11.43-152.52c-0.19-2.48,2.05-4.66,4.99-4.88l0,0c2.94-0.22,5.47,1.61,5.66,4.09
		l11.43,152.52c0.19,2.48-2.05,4.66-4.99,4.88l0,0C952.59,381.96,950.06,380.13,949.87,377.65z"/>
	
		<rect x="908.03" y="95.41" transform="matrix(0.9972 -0.0747 0.0747 0.9972 -5.2176 69.3202)" class="st33" width="32.04" height="17.99"/>
	
		<rect x="889.39" y="132.1" transform="matrix(0.9972 -0.0747 0.0747 0.9972 -7.9803 68.8281)" class="st33" width="53.39" height="17.99"/>
	
		<rect x="913.41" y="167.19" transform="matrix(0.9972 -0.0747 0.0747 0.9972 -10.5643 69.9224)" class="st33" width="32.04" height="17.99"/>
	
		<rect x="894.77" y="203.87" transform="matrix(0.9972 -0.0747 0.0747 0.9972 -13.327 69.4303)" class="st33" width="53.39" height="17.99"/>
	
		<rect x="918.79" y="238.96" transform="matrix(0.9972 -0.0747 0.0747 0.9972 -15.911 70.5246)" class="st33" width="32.04" height="17.99"/>
	
		<rect x="900.15" y="275.64" transform="matrix(0.9972 -0.0747 0.0747 0.9972 -18.6736 70.0325)" class="st33" width="53.39" height="17.99"/>
	
		<rect x="924.16" y="310.73" transform="matrix(0.9972 -0.0747 0.0747 0.9972 -21.2576 71.1268)" class="st33" width="32.04" height="17.99"/>
	
		<rect x="905.52" y="347.42" transform="matrix(0.9972 -0.0747 0.0747 0.9972 -24.0203 70.6347)" class="st33" width="53.39" height="17.99"/>
	
		<rect x="929.54" y="382.51" transform="matrix(0.9972 -0.0747 0.0747 0.9972 -26.6043 71.729)" class="st33" width="32.04" height="17.99"/>
	
		<rect x="910.9" y="419.19" transform="matrix(0.9972 -0.0747 0.0747 0.9972 -29.367 71.2369)" class="st33" width="53.39" height="17.99"/>
	
		<rect x="934.92" y="454.28" transform="matrix(0.9972 -0.0747 0.0747 0.9972 -31.9509 72.3312)" class="st33" width="32.04" height="17.99"/>
	
		<rect x="940.29" y="526.06" transform="matrix(0.9972 -0.0747 0.0747 0.9972 -37.2976 72.9334)" class="st33" width="32.04" height="17.99"/>
	
		<rect x="916.28" y="490.97" transform="matrix(0.9972 -0.0747 0.0747 0.9972 -34.7136 71.8391)" class="st33" width="53.39" height="17.99"/>
</g>
<g class="st34">
	<path d="M898.82,326.1l18.22-1.58c-1.62,17.49-0.12,34.71,4.48,51.67l-18.22,1.59c-9.29,0.81-17.46-6.07-18.27-15.35l-1.57-18.05
		C882.66,335.08,889.53,326.91,898.82,326.1z"/>
	<path d="M940,359.96l18.51-1.69l1.48,14.51l-17.62,1.6c0.03-0.23,0.02-0.47-0.03-0.71C941.41,369.11,940.63,364.55,940,359.96z"/>
	<path d="M919.18,322.41l16.25-1.41c1.16-0.11,2.16,0.65,2.45,1.71c0.07,0.22,0.1,0.46,0.1,0.71c-0.13,4.65-0.11,9.28,0.06,13.91
		c0.26,7.58,0.91,15.12,1.96,22.64c0.63,4.58,1.41,9.15,2.34,13.71c0.05,0.24,0.06,0.48,0.03,0.71c-0.1,1.09-0.96,2-2.12,2.11
		l-16.25,1.42c-1.13,0.09-2.17-0.62-2.47-1.71l-0.01,0c-4.6-16.95-6.1-34.17-4.48-51.67C917.15,323.39,918.05,322.51,919.18,322.41z
		"/>
</g>
<g>
	<path class="st35" d="M901.61,317.21l18.22-1.58c-1.62,17.49-0.12,34.71,4.48,51.67l-18.22,1.59c-9.29,0.81-17.46-6.07-18.27-15.35
		l-1.57-18.05C885.45,326.2,892.32,318.02,901.61,317.21z"/>
	<path class="st36" d="M1020.24,333.18l36.58-3.18c0.28,3.22,1.2,6.22,2.61,8.9l-37,19.55c-5-4.59-7.66-9.25-7.6-13.97
		C1014.88,340.76,1016.62,336.99,1020.24,333.18z"/>
	<path class="st37" d="M940.68,313.82l77.28-7.03c-3.8,5.36-5.69,10.4-5.14,15.07l-71.98,6.57c-0.17-4.63-0.19-9.26-0.06-13.91
		C940.78,314.28,940.74,314.04,940.68,313.82z"/>
	<path class="st38" d="M942.79,351.08l72.05-6.58c-0.06,4.71,2.59,9.37,7.6,13.97l-77.28,7.03c0.03-0.23,0.02-0.47-0.03-0.71
		C944.2,360.23,943.43,355.66,942.79,351.08z"/>
	<path class="st36" d="M921.97,313.52l16.25-1.41c1.16-0.11,2.16,0.65,2.45,1.71c0.07,0.22,0.1,0.46,0.1,0.71
		c-0.13,4.65-0.11,9.28,0.06,13.91c0.26,7.58,0.91,15.12,1.96,22.64c0.63,4.58,1.41,9.15,2.34,13.71c0.05,0.24,0.06,0.48,0.03,0.71
		c-0.1,1.09-0.96,2-2.12,2.11l-16.25,1.42c-1.13,0.09-2.17-0.62-2.47-1.71l-0.01,0c-4.6-16.95-6.1-34.17-4.48-51.67
		C919.94,314.51,920.84,313.62,921.97,313.52z"/>
	<path class="st39" d="M940.83,328.44l71.98-6.57c0.48,4.09,2.84,7.88,7.43,11.31c-3.62,3.81-5.36,7.58-5.4,11.31l-72.05,6.58
		C941.75,343.56,941.09,336.01,940.83,328.44z"/>
	<path class="st40" d="M1057.99,320.44l22.13,7.55l-20.67,10.93c-1.42-2.68-2.34-5.69-2.61-8.9
		C1056.54,326.67,1056.96,323.43,1057.99,320.44z"/>
	<path class="st41" d="M1017.95,306.8l40.03,13.65c-1.02,2.98-1.45,6.22-1.16,9.57l-36.58,3.18c-4.59-3.43-6.96-7.22-7.43-11.31
		C1012.26,317.2,1014.16,312.15,1017.95,306.8z"/>
</g>
<g>
	<path class="st42" d="M1287.38,235.7c0.14-0.61,0.33-1.21,0.57-1.78l44.51-109.09c2.39-5.85,9.07-8.66,14.92-6.28
		c5.81,2.29,8.66,8.87,6.37,14.68c-0.03,0.08-0.07,0.17-0.1,0.25l-44.52,109.1c-2.42,5.84-9.11,8.62-14.96,6.21
		C1289.03,246.65,1286.17,241.13,1287.38,235.7z M1028.6,135.42c-1.51-6.14,2.24-12.35,8.38-13.86c5.38-1.33,10.95,1.4,13.2,6.46
		l43.59,97.25c2.77,5.69,0.4,12.54-5.29,15.31s-12.54,0.4-15.31-5.29c-0.1-0.21-0.2-0.43-0.29-0.64l-43.61-97.26
		C1028.99,136.75,1028.76,136.1,1028.6,135.42z"/>
	<path class="st43" d="M1152.92,443.39L1040.8,194.38l12.24-29.99l14.13,5.74l15.85,6.5l108.41,221.04l5.72-5.7
		C1177.44,390.75,1151.33,423.7,1152.92,443.39z"/>
	<path class="st44" d="M1155.29,413.48l-96.25-223.56l8.13-19.79l15.85,6.5l110.25,220.94l-17.79-0.82
		C1167.25,400.22,1160.23,406.04,1155.29,413.48z"/>
	<polygon class="st43" points="1238.91,447.8 1211.36,395.11 1300.37,173.71 1330.17,161.02 1336.44,175.73 1342.33,189.53 
		1326.68,231.29 1239.49,446.29 	"/>
	<polygon class="st44" points="1239.49,446.29 1219.98,408.82 1308.99,187.42 1336.44,175.73 1342.33,189.53 1326.68,231.29 	"/>
	<path class="st45" d="M1132.85,582.4c-11.4-5.39-16.36-18.93-11.15-30.41l47-97l46.59,13.55L1175,544.23
		c-4.41,9.44-26.37,41.72-36.61,39.84C1136.46,583.8,1134.6,583.23,1132.85,582.4z"/>
	<path class="st46" d="M1138.38,584.08c-3.19-2.54-5.6-5.93-6.95-9.79c-2.16-5.68-1.92-11.99,0.66-17.49l47-97l31.17,14.45l-47,97
		C1158.85,580.69,1148.63,585.96,1138.38,584.08z"/>
	<path class="st47" d="M1184.05,482.25c-10.15-2.33-19.2-8.04-25.66-16.2c-3.85-4.78-6.66-10.3-8.27-16.22l0.03-0.11
		c-2.07-7.28-2.25-14.96-0.54-22.32c0.54-2.31,1.26-4.59,2.14-6.79c7.35-18.36,25.68-29.91,45.42-28.62l0.03-0.11
		c2.45,0.18,4.88,0.54,7.27,1.07c3.8,0.89,7.47,2.24,10.94,4.03c22.4,11.75,31.04,39.43,19.3,61.84
		c-7.69,14.67-22.71,24.05-39.27,24.52l-0.11-0.03C1191.53,483.48,1187.74,483.13,1184.05,482.25z"/>
	<path class="st48" d="M1195.43,483.32l-0.11-0.03c-5.64-3.02-10.61-7.16-14.61-12.15c-3.85-4.78-6.66-10.3-8.27-16.22l0.03-0.11
		c-2.07-7.28-2.25-14.96-0.54-22.32c0.54-2.31,1.26-4.59,2.14-6.79c6.81-16.97,23.06-28.26,41.34-28.73
		c22.4,11.75,31.04,39.43,19.3,61.84C1227.01,473.48,1211.99,482.85,1195.43,483.32z"/>
	<path class="st47" d="M1334.59,234.74c-12.34-2.8-20.07-15.06-17.27-27.4c2.8-12.34,15.06-20.07,27.4-17.27
		c12.34,2.8,20.07,15.06,17.27,27.4c-1.81,7.98-7.73,14.39-15.55,16.81C1342.6,235.47,1338.51,235.63,1334.59,234.74z"/>
	
		<ellipse transform="matrix(0.2228 -0.9749 0.9749 0.2228 840.3237 1483.969)" class="st48" cx="1350.85" cy="214.97" rx="19.81" ry="11.45"/>
	
		<rect x="1182.8" y="426.15" transform="matrix(0.2228 -0.9749 0.9749 0.2228 501.5796 1504.3368)" class="st49" width="22.9" height="22.9"/>
</g>
</svg>
