<svg xmlns="http://www.w3.org/2000/svg" viewBox="0 0 32 32"><path fill="#ff9797" d="M16,17a7,7,0,1,0,7,7A7,7,0,0,0,16,17Z"/><path fill="#e47979" d="M17,30.16a7,7,0,0,1-5-11.81,7,7,0,1,0,9.13,10.48A7,7,0,0,1,17,30.16Z"/><path fill="#d6b5b0" d="M16,1a3,3,0,0,0-3,3V6a1,1,0,0,0,1,1h4a1,1,0,0,0,1-1V4A3,3,0,0,0,16,1Z"/><path fill="#bf9e99" d="M13.74,6.38v-2a3,3,0,0,1,3-3,3.21,3.21,0,0,1,1,.17A3,3,0,0,0,16,1a3,3,0,0,0-3,3V6a1,1,0,0,0,1,1A1,1,0,0,1,13.74,6.38Z"/><path fill="#ffc661" d="M26.45,14.94a10.46,10.46,0,0,0-20.9,0L5,26a1,1,0,0,0,.28.74A1,1,0,0,0,6,27H26a1,1,0,0,0,.72-.31A1,1,0,0,0,27,26Z"/><path fill="#e49f4e" d="M6.54,26.41l.55-11A10.46,10.46,0,0,1,17.54,5.46a10,10,0,0,1,2.2.24A10.32,10.32,0,0,0,16,5,10.46,10.46,0,0,0,5.55,14.94L5,26a1,1,0,0,0,.28.74A1,1,0,0,0,6,27h.72A1,1,0,0,1,6.54,26.41Z"/></svg>