<svg xmlns="http://www.w3.org/2000/svg" viewBox="0 0 32 32"><path fill="#ffd15b" d="M23.751,21.34c-.189-.216-.464-.34-.751-.34H9c-.287,0-.562,.124-.751,.34-.189,.216-.277,.503-.241,.788l.801,6.203c.169,1.521,1.45,2.669,2.981,2.669h8.42c1.531,0,2.812-1.147,2.979-2.651l.803-6.221c.036-.285-.052-.572-.241-.788Z"/><path fill="#885749" d="M24.736,7.323c-.374-.406-1.008-.431-1.413-.059l-5.964,5.494c-.164,.125-.311,.276-.457,.431-.229-1.308-.876-2.511-1.836-3.373l-4.347-4.51c-.383-.398-1.017-.409-1.414-.026-.397,.383-.409,1.017-.025,1.414l4.397,4.56c.84,.757,1.322,1.84,1.322,2.972v4.774c0,.552,.447,1,1,1s1-.448,1-1v-.473c0-1.406,.673-3.492,1.643-4.238l6.034-5.553c.407-.374,.433-1.006,.06-1.413Z"/><rect width="20" height="5" x="6" y="18" fill="#fec345" rx="2" ry="2"/><path fill="#78a640" d="M15,6v3c0,1.103-.897,2-2,2h-3c-2.757,0-5-2.243-5-5V2c0-.552,.447-1,1-1h4c2.757,0,5,2.243,5,5Zm13-3h-4c-2.757,0-5,2.243-5,5v3c0,1.103,.897,2,2,2h3c2.757,0,5-2.243,5-5V4c0-.552-.447-1-1-1Z"/></svg>