<svg xmlns="http://www.w3.org/2000/svg" viewBox="0 0 512 512"><path fill="#2a92fa" fill-rule="evenodd" d="M222.449,350.268c28.221,35.378,69.494,55.206,116.429,55.206h53.992v36.028c0,3.147,1.692,5.842,4.527,7.208,2.835,1.367,5.997,1.013,8.459-.947l87.125-69.334c1.973-1.57,3.019-3.74,3.019-6.262s-1.047-4.692-3.019-6.262l-87.125-69.334c-2.462-1.96-5.625-2.314-8.459-.947-2.835,1.367-4.527,4.061-4.527,7.208v36.028h-48.442c-34.148,0-63.466-16.927-80.54-46.5l-3.951-6.843-34.476,59.715c-.981,1.7-1.986,3.377-3.01,5.034h0ZM69.991,106.526H28c-6.609,0-12,5.391-12,12v42.612c0,6.609,5.391,12,12,12h36.442c34.148,0,63.466,16.926,80.54,46.5l3.951,6.843,34.476-59.715c.981-1.7,1.986-3.377,3.01-5.034-28.221-35.378-69.494-55.206-116.429-55.206Z"/><path fill="#2a92fa" fill-rule="evenodd" d="M492.98,146.093l-87.125,69.334c-2.462,1.96-5.625,2.314-8.459,.947-2.835-1.367-4.527-4.061-4.527-7.208v-36.028h-48.442c-34.148,0-63.466,16.926-80.54,46.5l-63.992,110.837c-27.539,47.699-74.826,75-129.904,75H28c-6.609,0-12-5.391-12-12v-42.612c0-6.609,5.391-12,12-12h36.442c34.148,0,63.466-16.927,80.54-46.5l63.992-110.837c27.539-47.699,74.826-75,129.904-75h53.992v-36.028c0-3.147,1.692-5.842,4.527-7.208,2.835-1.367,5.997-1.013,8.459,.947l87.125,69.334c1.973,1.57,3.019,3.74,3.019,6.262s-1.047,4.692-3.019,6.262Z"/></svg>